<svg xmlns="http://www.w3.org/2000/svg" width="200" height="44" fill="none" viewBox="0 0 200 44"><path fill="#2B2D42" d="M76.525 34.592h-6.96V15.16h7.012c1.967 0 3.674.384 5.098 1.152a7.883 7.883 0 0 1 3.286 3.329c.776 1.46 1.138 3.175 1.138 5.197 0 2.023-.388 3.764-1.164 5.224a8.003 8.003 0 0 1-3.312 3.354c-1.397.793-3.105 1.177-5.098 1.177Zm-2.82-3.533h2.64c1.837 0 3.234-.486 4.191-1.485.957-.973 1.423-2.56 1.423-4.737 0-2.15-.466-3.712-1.423-4.71-.957-.974-2.355-1.46-4.192-1.46h-2.639v12.392ZM89.204 34.592h-4.45l6.779-19.407h5.356l6.753 19.407h-4.45l-1.45-4.43h-7.089l-1.449 4.43Zm2.51-7.63h4.994L94.3 19.614h-.155l-2.432 7.348ZM120.668 24.889c0 2.125-.414 3.917-1.216 5.402-.802 1.485-1.915 2.612-3.286 3.405-1.398.768-2.95 1.178-4.684 1.178-1.733 0-3.312-.384-4.683-1.178-1.397-.793-2.484-1.92-3.286-3.405-.802-1.485-1.216-3.277-1.216-5.377 0-2.125.414-3.917 1.216-5.402.802-1.485 1.889-2.612 3.286-3.405 1.397-.769 2.95-1.178 4.683-1.178 1.734 0 3.286.384 4.684 1.178 1.397.768 2.484 1.92 3.286 3.405.828 1.434 1.216 3.252 1.216 5.377Zm-4.192 0c0-2.049-.466-3.636-1.371-4.712-.906-1.075-2.122-1.638-3.623-1.638-1.5 0-2.717.537-3.622 1.638-.906 1.101-1.372 2.663-1.372 4.712 0 2.048.466 3.635 1.372 4.71.905 1.076 2.122 1.64 3.622 1.64 1.501 0 2.717-.538 3.623-1.64.905-1.1 1.371-2.662 1.371-4.71ZM126.231 15.16h5.123l5.408 13.057h.233l5.408-13.058h5.097v19.433h-4.036V21.944h-.156l-5.071 12.546h-2.743l-5.071-12.597h-.156v12.7h-4.036V15.158ZM153.529 34.848c-1.397 0-2.562-.358-3.493-1.1-.932-.718-1.397-1.819-1.397-3.252 0-1.076.258-1.946.776-2.56.517-.615 1.19-1.076 2.044-1.358a11.086 11.086 0 0 1 2.717-.563c1.268-.128 2.199-.256 2.742-.41.544-.153.828-.435.828-.921v-.052c0-.588-.181-1.075-.569-1.382-.388-.333-.905-.487-1.604-.487-.725 0-1.32.154-1.76.487a2.1 2.1 0 0 0-.853 1.203l-3.778-.307c.285-1.332.983-2.381 2.096-3.15 1.112-.767 2.561-1.177 4.321-1.177 1.087 0 2.122.18 3.053.512.957.333 1.708.87 2.303 1.587s.88 1.665.88 2.817v9.857h-3.882V32.57h-.103a4.31 4.31 0 0 1-1.604 1.665c-.725.41-1.63.614-2.717.614Zm1.164-2.765c.906 0 1.63-.256 2.2-.768a2.475 2.475 0 0 0 .853-1.92v-1.537c-.155.103-.414.205-.75.282a12.95 12.95 0 0 1-1.061.205c-.388.051-.724.102-1.009.154-.724.102-1.294.307-1.734.588-.439.308-.646.743-.646 1.306 0 .563.207.973.621 1.255.388.281.905.435 1.526.435ZM163.387 34.592V15.16h4.088v10.37h.233l4.709-5.53h4.684l-5.46 6.298 5.744 8.27h-4.786l-4.037-5.863-1.112 1.254v4.634h-4.063Z"/><path fill="#2B2D42" d="M183.285 34.874c-1.501 0-2.795-.307-3.907-.922a6.226 6.226 0 0 1-2.51-2.586c-.595-1.126-.88-2.457-.88-3.994 0-1.485.285-2.816.88-3.943.595-1.126 1.423-2.022 2.484-2.637 1.061-.64 2.329-.947 3.778-.947 1.293 0 2.458.281 3.519.819 1.035.538 1.863 1.357 2.484 2.458.621 1.101.931 2.458.931 4.122v1.101h-10.013c0 1.076.31 1.946.905 2.56.595.615 1.423.948 2.432.948.673 0 1.268-.154 1.76-.435a2.426 2.426 0 0 0 1.061-1.255l3.777.256c-.284 1.357-1.009 2.432-2.173 3.252-1.19.794-2.691 1.203-4.528 1.203Zm-3.26-9.038h6.184c0-.87-.285-1.587-.854-2.15-.569-.564-1.268-.846-2.174-.846-.905 0-1.656.282-2.225.87a3.271 3.271 0 0 0-.931 2.126ZM191.073 34.592V20.024h3.959v2.534h.155c.259-.896.725-1.587 1.346-2.048.621-.46 1.371-.691 2.173-.691.466 0 .88.051 1.294.154v3.584a7.48 7.48 0 0 0-.802-.154c-.337-.05-.647-.05-.932-.05-.905 0-1.656.28-2.225.844-.595.563-.88 1.28-.88 2.176v8.22h-4.088Z"/><path fill="url(#paint0_linear_185_37950)" d="M.79 43.924 20.393 7.616 37.677 0 18.076 36.308.79 43.924Z"/><path fill="url(#paint1_linear_185_37950)" d="m20.341 35.625 14.892-27.58 8.452 8.3L28.996 44l-8.655-8.375Z"/><path fill="url(#paint2_linear_185_37950)" d="m45.34 17.18 11.022 3.998-5.499 10.07-13.364.455 7.84-14.523Z"/><defs><linearGradient id="paint0_linear_185_37950" x1=".83" x2="57.389" y1="43.898" y2="-.431" gradientUnits="userSpaceOnUse"><stop stop-color="#48D5FF"/><stop offset="1" stop-color="#1FA5FF"/></linearGradient><linearGradient id="paint1_linear_185_37950" x1="1.323" x2="60.24" y1="44.02" y2="-.445" gradientUnits="userSpaceOnUse"><stop stop-color="#48D5FF"/><stop offset="1" stop-color="#1FA5FF"/></linearGradient><linearGradient id="paint2_linear_185_37950" x1="1.077" x2="58.211" y1="43.837" y2=".459" gradientUnits="userSpaceOnUse"><stop stop-color="#48D5FF"/><stop offset="1" stop-color="#1FA5FF"/></linearGradient></defs></svg>